<svg width="185" height="67" viewBox="0 0 185 67" fill="none" xmlns="http://www.w3.org/2000/svg">
<g clip-path="url(#clip0_902_194)">
<path d="M118.714 27.7718C118.36 27.2156 116.814 24.9234 113.938 24.3294C112.668 24.028 111.336 24.1434 110.136 24.6588C108.792 25.2989 107.721 26.4032 107.115 27.7718C105.916 30.3152 106.465 33.5309 108.479 36.0338C112.089 39.2827 116.249 41.8483 120.76 43.6072C122.366 41.1772 125.536 36.0338 125.536 36.0338C128.338 31.6085 129.188 27.2183 127.583 25.0179C126.954 24.1163 126.04 23.4574 124.99 23.1495C123.717 22.8795 122.657 23.3844 122.125 23.6409C119.821 24.7533 118.944 27.0833 118.714 27.7718Z" fill="#C6031F"/>
<path d="M17.4279 14.6741C16.8714 14.9441 15.6968 15.2357 14.2172 15.2357C10.0755 15.2357 7.58984 12.425 7.58984 8.02674C7.58984 3.05338 10.7497 0.466797 14.5624 0.466797C16.0393 0.466797 17.0828 0.766495 17.5376 1.00679L17.0025 3.05337C16.2628 2.72133 15.4602 2.55638 14.6507 2.57008C12.1517 2.57008 10.2092 4.28187 10.2092 7.88094C10.2092 11.264 11.9243 13.0838 14.6293 13.0838C15.4522 13.0911 16.2692 12.9418 17.0373 12.6437L17.4279 14.6741Z" fill="#3A178E"/>
<path d="M20.846 10.5378C20.9022 12.552 22.232 13.3188 23.7597 13.3188C24.6282 13.3314 25.4913 13.1794 26.3042 12.8706L26.6708 14.6283C25.6234 15.0478 24.5037 15.2525 23.3771 15.2304C20.2413 15.2304 18.4434 13.1892 18.4434 9.99509C18.4434 6.95491 20.1397 4.42773 23.1176 4.42773C26.0955 4.42773 27.2005 6.96302 27.2005 9.393C27.2082 9.77458 27.1804 10.156 27.1176 10.5324L20.846 10.5378ZM24.8594 8.76931C24.8594 7.59482 24.4206 6.19892 22.9597 6.19892C21.5417 6.19892 20.9423 7.65962 20.8487 8.76931H24.8594Z" fill="#3A178E"/>
<path d="M29.1533 7.68939C29.1533 6.49869 29.1131 5.5537 29.0703 4.64921H31.2509L31.374 6.10719H31.4275C31.7442 5.58621 32.1902 5.15772 32.7215 4.86411C33.2527 4.57051 33.8507 4.42198 34.4562 4.43321C36.2275 4.43321 37.8087 5.6536 37.8087 8.67758V15.0414H35.3071V8.95837C35.3071 7.60838 34.8629 6.50409 33.5706 6.50409C32.677 6.50409 32.0241 7.15209 31.7753 7.96478C31.6899 8.24542 31.6493 8.53796 31.6549 8.83147V15.0414H29.1533V7.68939Z" fill="#3A178E"/>
<path d="M43.154 1.73047V4.64915H45.4871V6.51483H43.154V11.3424C43.154 12.6141 43.534 13.1622 44.4009 13.1622C44.7097 13.168 45.018 13.1344 45.3186 13.0623L45.3694 14.9955C44.7962 15.1695 44.1993 15.2506 43.6009 15.2358C43.2135 15.256 42.8261 15.1961 42.4626 15.0596C42.0991 14.923 41.7671 14.7129 41.4871 14.442C40.952 13.8723 40.6845 12.9759 40.6845 11.5584V6.51483H39.2852V4.64915H40.6845V2.34067L43.154 1.73047Z" fill="#3A178E"/>
<path d="M47.2529 7.86534C47.2529 6.60445 47.2181 5.56225 47.1699 4.64966H49.3478L49.4495 6.50185H49.5218C49.9953 5.15186 51.0923 4.43366 52.1224 4.43366C52.3146 4.42802 52.5068 4.44523 52.695 4.48496V6.90144C52.4711 6.85794 52.2433 6.83803 52.0154 6.84204C50.913 6.84204 50.0729 7.59534 49.8375 8.76713C49.7851 9.0484 49.76 9.33415 49.7626 9.62032V15.0419H47.2609L47.2529 7.86534Z" fill="#3A178E"/>
<path d="M55.8909 10.5382C55.9471 12.5524 57.2796 13.3192 58.8073 13.3192C59.6749 13.3317 60.5371 13.1796 61.3491 12.871L61.7157 14.6287C60.6696 15.0499 59.5508 15.2564 58.4247 15.2362C55.2863 15.2362 53.4883 13.195 53.4883 10.001C53.4883 6.96077 55.1846 4.43359 58.1625 4.43359C61.1404 4.43359 62.2454 6.96887 62.2454 9.39885C62.2523 9.7803 62.2255 10.1616 62.1652 10.5382H55.8909ZM59.9043 8.76976C59.9043 7.59527 59.4655 6.19937 58.0047 6.19937C56.5893 6.19937 55.9899 7.66007 55.8936 8.76976H59.9043Z" fill="#3A178E"/>
<path d="M70.0607 2.82657H66.4434V0.650391H76.2092V2.82387H72.5624V15.0413H70.0607V2.82657Z" fill="#3A178E"/>
<path d="M85.1774 9.76606C85.1774 13.6972 82.6757 15.2578 80.3614 15.2578C77.6724 15.2578 75.6523 13.2868 75.6523 9.90645C75.6523 6.39648 77.758 4.4336 80.5085 4.4336C83.3018 4.4309 85.1774 6.53418 85.1774 9.76606ZM78.2021 9.84976C78.2021 11.7748 78.9834 13.3921 80.4416 13.3921C81.8249 13.3921 82.6276 11.7586 82.6276 9.82546C82.6276 8.22977 82.0496 6.29658 80.4416 6.29658C78.8336 6.29658 78.2021 8.18387 78.2021 9.84976Z" fill="#3A178E"/>
<path d="M95.7193 11.9556C95.7193 13.1571 95.7594 14.1857 95.8022 15.0416H93.6243L93.4958 13.6106H93.4397C93.1239 14.1236 92.6813 14.5449 92.1555 14.8331C91.6297 15.1214 91.0386 15.2668 90.4403 15.2549C88.5674 15.2549 87.1387 14.0264 87.1387 10.8378V4.64941H89.6403V10.449C89.6403 12.1014 90.0978 13.1868 91.342 13.1868C91.7274 13.1765 92.1005 13.0477 92.4113 12.8175C92.7221 12.5873 92.9558 12.2668 93.0811 11.8989C93.1737 11.6288 93.2198 11.3449 93.2176 11.0592V4.64941H95.7193V11.9556Z" fill="#3A178E"/>
<path d="M98.3105 0H100.812V15.0416H98.3105V0Z" fill="#3A178E"/>
<path d="M112.395 9.76606C112.395 13.6972 109.893 15.2578 107.579 15.2578C104.89 15.2578 102.867 13.2868 102.867 9.90645C102.867 6.39648 104.973 4.4336 107.723 4.4336C110.519 4.4309 112.395 6.53418 112.395 9.76606ZM105.42 9.84976C105.42 11.7748 106.201 13.3921 107.662 13.3921C109.042 13.3921 109.845 11.7586 109.845 9.82546C109.845 8.22977 109.267 6.29658 107.659 6.29658C106.051 6.29658 105.42 8.18387 105.42 9.84976Z" fill="#3A178E"/>
<path d="M122.926 11.9556C122.926 13.1571 122.969 14.1857 123.012 15.0416H120.831L120.703 13.6134H120.647C120.331 14.1263 119.888 14.5476 119.363 14.8358C118.837 15.1241 118.246 15.2695 117.647 15.2576C115.774 15.2576 114.346 14.0291 114.346 10.8405V4.64941H116.847V10.449C116.847 12.1014 117.308 13.1868 118.549 13.1868C118.934 13.1765 119.308 13.0477 119.618 12.8175C119.929 12.5873 120.163 12.2668 120.288 11.8989C120.382 11.6292 120.428 11.345 120.425 11.0592V4.64941H122.926V11.9556Z" fill="#3A178E"/>
<path d="M125.393 12.7031C126.115 13.1279 126.931 13.3662 127.766 13.397C128.807 13.397 129.315 12.9272 129.315 12.2252C129.315 11.5232 128.927 11.1587 127.755 10.6593C125.883 9.89516 125.128 8.82057 125.136 7.64067C125.136 5.82629 126.578 4.4331 128.815 4.4331C129.684 4.42144 130.544 4.62246 131.319 5.01899L130.819 6.81447C130.227 6.47028 129.557 6.28441 128.874 6.27448C127.991 6.27448 127.515 6.75508 127.515 7.37068C127.515 7.98627 127.937 8.32107 129.144 8.84486C130.867 9.56306 131.691 10.5431 131.699 12.0065C131.699 13.9667 130.236 15.2465 127.75 15.2465C126.755 15.2663 125.771 15.0293 124.893 14.558L125.393 12.7031Z" fill="#3A178E"/>
<path d="M139.044 15.0416L138.878 13.913H138.82C138.497 14.3455 138.077 14.6937 137.594 14.9286C137.11 15.1635 136.578 15.2781 136.042 15.263C134.137 15.263 132.992 13.832 132.992 12.1769C132.992 9.53901 135.282 8.27272 138.638 8.27542V8.07292C138.638 7.26293 138.325 6.24774 136.711 6.25314C135.825 6.25645 134.956 6.50383 134.199 6.96863L133.707 5.30814C134.77 4.71539 135.97 4.41555 137.185 4.43875C140.291 4.43875 141.155 6.45834 141.155 8.71822V12.5846C141.142 13.4082 141.193 14.2315 141.308 15.047L139.044 15.0416ZM138.705 9.91161C137.155 9.89811 135.446 10.2464 135.446 11.8961C135.446 12.9599 136.096 13.4243 136.821 13.4243C137.23 13.4282 137.629 13.2971 137.957 13.0509C138.285 12.8047 138.524 12.457 138.638 12.0608C138.685 11.8784 138.708 11.6904 138.705 11.5019V9.91161Z" fill="#3A178E"/>
<path d="M146.327 1.7955C146.328 2.07192 146.248 2.34244 146.096 2.57276C145.945 2.80308 145.729 2.98283 145.476 3.08923C145.223 3.19563 144.945 3.2239 144.676 3.17043C144.408 3.11696 144.161 2.98417 143.967 2.7889C143.773 2.59363 143.641 2.34466 143.587 2.07356C143.534 1.80246 143.561 1.52143 143.666 1.2661C143.771 1.01076 143.949 0.792626 144.177 0.639329C144.405 0.486032 144.673 0.404476 144.947 0.405009C145.129 0.39902 145.311 0.430871 145.481 0.498595C145.651 0.566319 145.806 0.668481 145.935 0.798775C146.064 0.929069 146.166 1.08473 146.233 1.25616C146.301 1.42759 146.333 1.61114 146.327 1.7955ZM143.7 15.0416V4.64938H146.204V15.0416H143.7Z" fill="#3A178E"/>
<path d="M148.796 7.68939C148.796 6.49869 148.756 5.5537 148.713 4.64921H150.891L151.017 6.10719H151.07C151.387 5.58621 151.833 5.15772 152.364 4.86411C152.895 4.57051 153.493 4.42198 154.099 4.43321C155.87 4.43321 157.451 5.6536 157.451 8.67758V15.0414H154.95V8.95837C154.95 7.60838 154.503 6.50409 153.213 6.50409C152.32 6.50409 151.667 7.15209 151.415 7.96478C151.332 8.24587 151.292 8.53819 151.298 8.83147V15.0414H148.796V7.68939Z" fill="#3A178E"/>
<path d="M47.9414 25.6123V37.7622C47.9414 38.7639 47.9842 39.9222 48.0271 40.6458H45.8224L45.6993 39.123H45.6485C45.3606 39.6666 44.9287 40.1189 44.401 40.4292C43.8733 40.7396 43.2705 40.8959 42.6598 40.8807C40.3401 40.8807 38.6465 38.7396 38.6465 35.5644C38.6465 32.0302 40.6104 30.0592 42.8418 30.0592C44.0833 30.0592 44.9822 30.5992 45.4023 31.3444H45.4451V25.6123H47.9414ZM45.4451 34.4817C45.4493 34.2574 45.4323 34.0332 45.3943 33.8121C45.2043 32.8509 44.4792 32.0464 43.4598 32.0464C41.9428 32.0464 41.1695 33.5853 41.1695 35.4915C41.1695 37.449 41.9909 38.8314 43.4224 38.8314C44.2946 38.8314 45.0973 38.2509 45.3675 37.1358C45.424 36.8944 45.45 36.6467 45.4451 36.3987V34.4817Z" fill="#3A178E"/>
<path d="M59.0708 37.5679C59.0708 38.7694 59.1109 39.7953 59.1537 40.6539H56.9758L56.8474 39.2256H56.7912C56.4749 39.7379 56.0322 40.1585 55.5064 40.4462C54.9807 40.734 54.3899 40.8791 53.7919 40.8672C51.919 40.8672 50.4902 39.6414 50.4902 36.4528V30.2617H52.9919V36.0613C52.9919 37.7137 53.4494 38.7991 54.6936 38.7991C55.079 38.7888 55.452 38.66 55.7629 38.4298C56.0737 38.1996 56.3074 37.8791 56.4327 37.5112C56.5252 37.2411 56.5714 36.9572 56.5691 36.6715V30.2617H59.0708V37.5679Z" fill="#3A178E"/>
<path d="M65.8516 26.4676C67.0071 26.2568 68.1797 26.1565 69.3539 26.1679C71.085 26.1679 72.297 26.4082 73.2308 27.1075C73.6565 27.4023 74.0021 27.8004 74.2358 28.265C74.4696 28.7297 74.584 29.2461 74.5686 29.7669C74.5686 31.1007 73.782 32.3076 72.2729 32.8881V32.9475C73.8221 33.3552 75.0662 34.6026 75.0662 36.5034C75.077 37.0549 74.9695 37.6022 74.7511 38.1079C74.5326 38.6135 74.2084 39.0655 73.8007 39.4329C72.8402 40.332 71.2535 40.7829 68.8107 40.7829C67.8268 40.7903 66.8436 40.7308 65.8676 40.6047L65.8516 26.4676ZM68.3345 32.1807H69.4689C71.0743 32.1807 72.0589 31.2978 72.0589 30.0531C72.0589 28.7517 71.1866 28.0443 69.6161 28.0443C69.1861 28.0312 68.756 28.0684 68.3345 28.155V32.1807ZM68.3345 38.7957C68.7241 38.8542 69.118 38.8777 69.5117 38.8659C71.093 38.8659 72.4549 38.172 72.4549 36.4359C72.4549 34.7592 71.0903 34.0275 69.4502 34.0248H68.3452L68.3345 38.7957Z" fill="#3A178E"/>
<path d="M79.0472 36.1504C79.1034 38.1646 80.4358 38.9287 81.9636 38.9287C82.8321 38.9424 83.6955 38.7903 84.5081 38.4805L84.8719 40.2408C83.8259 40.6623 82.7071 40.8689 81.581 40.8483C78.4425 40.8483 76.6445 38.8072 76.6445 35.6104C76.6445 32.5729 78.3408 30.0457 81.3188 30.0457C84.2967 30.0457 85.4044 32.581 85.4044 35.011C85.4107 35.3925 85.3829 35.7739 85.3214 36.1504H79.0472ZM83.0606 34.3792C83.0606 33.2074 82.6191 31.8088 81.1582 31.8088C79.7428 31.8088 79.1435 33.2695 79.0472 34.3792H83.0606ZM84.3475 25.8311L81.8887 28.9252H80.1897L81.9341 25.8311H84.3475Z" fill="#3A178E"/>
<path d="M87.3629 33.3019C87.3629 32.1085 87.3202 31.1663 87.2773 30.2618H89.4579L89.581 31.7198H89.6372C89.9523 31.1973 90.398 30.7676 90.9296 30.4738C91.4612 30.18 92.06 30.0324 92.666 30.0458C94.4372 30.0458 96.0158 31.2662 96.0158 34.2901V40.654H93.5141V34.5709C93.5141 33.2209 93.07 32.1166 91.7803 32.1166C90.8867 32.1166 90.2339 32.7646 89.9823 33.5773C89.8993 33.8584 89.8596 34.1507 89.8646 34.444V40.654H87.3629V33.3019Z" fill="#3A178E"/>
<path d="M100.393 36.1504C100.449 38.1646 101.782 38.9287 103.309 38.9287C104.177 38.9424 105.039 38.7904 105.851 38.4805L106.218 40.2408C105.172 40.662 104.053 40.8686 102.927 40.8483C99.7882 40.8483 97.9902 38.8072 97.9902 35.6104C97.9902 32.5729 99.6865 30.0457 102.664 30.0457C105.642 30.0457 106.75 32.581 106.75 35.011C106.756 35.3925 106.729 35.7739 106.667 36.1504H100.393ZM104.406 34.3792C104.406 33.2074 103.967 31.8088 102.507 31.8088C101.091 31.8088 100.492 33.2695 100.396 34.3792H104.406ZM105.693 25.8311L103.234 28.9252H101.538L103.282 25.8311H105.693Z" fill="#3A178E"/>
<path d="M136.736 35.3774C136.736 39.3086 134.234 40.8664 131.92 40.8664C129.244 40.8664 127.211 38.8982 127.211 35.5178C127.211 32.0078 129.317 30.0449 132.067 30.0449C134.86 30.0449 136.736 32.1455 136.736 35.3774ZM129.761 35.4611C129.761 37.3835 130.542 39.0035 132.003 39.0035C133.383 39.0035 134.186 37.37 134.186 35.4368C134.186 33.8411 133.608 31.9079 132 31.9079C130.392 31.9079 129.761 33.7952 129.761 35.4611Z" fill="#3A178E"/>
<path d="M138.748 25.6123H141.25V40.6539H138.748V25.6123Z" fill="#3A178E"/>
<path d="M149.258 40.654L149.092 39.5255H149.033C148.71 39.958 148.289 40.3062 147.806 40.5411C147.322 40.7759 146.79 40.8906 146.253 40.8754C144.348 40.8754 143.203 39.4472 143.203 37.7921C143.203 35.1542 145.496 33.8852 148.851 33.8906V33.6881C148.851 32.8781 148.538 31.8629 146.925 31.8656C146.038 31.8694 145.168 32.1167 144.41 32.5811L143.92 30.9206C144.985 30.3302 146.184 30.0314 147.398 30.0539C150.507 30.0539 151.372 32.0735 151.372 34.3334V38.1809C151.359 39.0043 151.409 39.8275 151.521 40.6432L149.258 40.654ZM148.918 35.5241C147.366 35.5106 145.659 35.8562 145.659 37.5086C145.659 38.5724 146.309 39.0341 147.032 39.0341C147.441 39.038 147.839 38.9069 148.168 38.6607C148.496 38.4145 148.735 38.0668 148.849 37.6706C148.898 37.4886 148.922 37.3004 148.918 37.1117V35.5241Z" fill="#3A178E"/>
<path d="M156.66 27.3428V30.2615H158.993V32.1271H156.66V36.952C156.66 38.2237 157.043 38.7745 157.907 38.7745C158.216 38.7789 158.524 38.7454 158.824 38.6746L158.875 40.6078C158.302 40.7824 157.705 40.8636 157.107 40.8481C156.719 40.8676 156.332 40.8072 155.969 40.6707C155.605 40.5343 155.273 40.3245 154.993 40.0543C154.458 39.4846 154.19 38.5882 154.19 37.1707V32.1271H152.791V30.2615H154.19V27.953L156.66 27.3428Z" fill="#3A178E"/>
<path d="M0.776412 59.7806L0.591797 57.7232L121.349 46.7073C121.416 46.6991 121.484 46.6991 121.552 46.7073L185.001 53.5706L184.781 55.6226L121.434 48.7485L0.776412 59.7806Z" fill="#3A178E"/>
<path d="M31.7248 64.829C31.5298 64.831 31.3383 64.7768 31.1727 64.6728C31.0071 64.5688 30.8744 64.4193 30.7901 64.2418C30.7058 64.0643 30.6735 63.8663 30.6969 63.6709C30.7202 63.4755 30.7984 63.2909 30.9222 63.1388C32.446 61.2469 34.3357 59.688 36.4761 58.5572C38.6165 57.4264 40.9627 56.7474 43.3716 56.5616C49.3783 56.0216 56.0084 58.2059 60.6906 62.2316C60.8968 62.4106 61.024 62.6649 61.0443 62.9386C61.0646 63.2123 60.9764 63.4829 60.799 63.6909C60.6216 63.8989 60.3696 64.0273 60.0983 64.0478C59.8271 64.0683 59.559 63.9793 59.3528 63.8003C55.1388 60.1688 48.9181 58.1303 43.5402 58.6082C41.4033 58.7728 39.322 59.3748 37.4232 60.3775C35.5243 61.3801 33.8477 62.7624 32.4954 64.4402C32.4025 64.5574 32.2855 64.6529 32.1524 64.72C32.0194 64.7871 31.8735 64.8243 31.7248 64.829Z" fill="#3A178E"/>
<path d="M100.291 64.2458C100.032 64.2496 99.7812 64.153 99.5904 63.9758C99.4245 63.8192 99.1971 63.5816 98.9081 63.2847C97.0352 61.3407 92.6392 56.7858 87.5128 55.9812C80.3236 54.8553 70.0922 57.8361 65.1745 62.4936C64.9745 62.6693 64.7149 62.7601 64.45 62.7467C64.1852 62.7333 63.9358 62.6168 63.7543 62.4218C63.5728 62.2267 63.4733 61.9682 63.4766 61.7007C63.48 61.4331 63.5861 61.1773 63.7725 60.987C69.0861 55.9569 80.0935 52.7304 87.8259 53.94C93.6292 54.8499 98.3569 59.7504 100.374 61.8429C100.642 62.1129 100.843 62.3289 100.992 62.4693C101.142 62.6112 101.246 62.7951 101.29 62.9973C101.335 63.1994 101.319 63.4105 101.243 63.6031C101.168 63.7957 101.037 63.961 100.867 64.0775C100.697 64.194 100.497 64.2564 100.291 64.2567V64.2458Z" fill="#3A178E"/>
<path d="M144.979 62.8692C144.722 62.8705 144.473 62.7741 144.283 62.5992C132.915 51.964 119.229 51.7291 106.734 61.9539C106.524 62.1261 106.254 62.2068 105.984 62.1782C105.714 62.1496 105.467 62.014 105.296 61.8014C105.126 61.5887 105.046 61.3163 105.074 61.0441C105.102 60.772 105.237 60.5223 105.447 60.3501C118.619 49.5691 133.659 49.8418 145.675 61.0845C145.826 61.2253 145.932 61.4091 145.978 61.6117C146.025 61.8143 146.009 62.0262 145.934 62.2198C145.859 62.4133 145.727 62.5794 145.557 62.6963C145.386 62.8131 145.185 62.8753 144.979 62.8746V62.8692Z" fill="#3A178E"/>
<path d="M172.96 62.8689C172.716 62.8694 172.48 62.7813 172.294 62.6205C167.767 58.711 160.286 57.0289 154.566 62.58C154.469 62.674 154.355 62.7478 154.23 62.7972C154.105 62.8467 153.971 62.8707 153.837 62.8681C153.703 62.8655 153.57 62.8362 153.447 62.7819C153.324 62.7276 153.213 62.6494 153.12 62.5517C153.027 62.454 152.953 62.3388 152.904 62.2126C152.855 62.0864 152.832 61.9517 152.834 61.8162C152.837 61.6806 152.866 61.547 152.92 61.4228C152.973 61.2986 153.051 61.1863 153.148 61.0924C157.803 56.5753 166.197 54.6367 173.624 61.0519C173.783 61.1887 173.897 61.3716 173.95 61.5759C174.004 61.7802 173.993 61.996 173.921 62.1942C173.848 62.3924 173.718 62.5633 173.546 62.684C173.374 62.8047 173.17 62.8692 172.96 62.8689Z" fill="#3A178E"/>
<path d="M1.02494 66.9996C0.827678 66.9993 0.634699 66.9415 0.469184 66.8332C0.30367 66.7249 0.172651 66.5707 0.0918539 66.3891C0.0110567 66.2075 -0.0160809 66.0062 0.0136965 65.8094C0.043474 65.6126 0.128908 65.4287 0.259731 65.2797C3.045 62.1126 7.75134 60.1498 12.5165 60.1309H12.5513C17.1854 60.1309 21.3566 61.9587 24.3024 65.277C24.4731 65.4829 24.5578 65.7478 24.5385 66.0155C24.5192 66.2833 24.3975 66.533 24.1991 66.7118C24.0007 66.8906 23.7411 66.9846 23.4753 66.9738C23.2095 66.963 22.9582 66.8483 22.7747 66.654C20.2249 63.7785 16.5968 62.2098 12.5513 62.2098H12.5219C8.3132 62.2098 4.20085 63.9243 1.79015 66.6648C1.69289 66.7715 1.57453 66.8564 1.44272 66.9141C1.31092 66.9718 1.1686 67.0009 1.02494 66.9996Z" fill="#3A178E"/>
<path d="M120.574 34.8814C120.429 36.1515 119.968 37.3641 119.236 38.4076C122.067 38.2051 127.346 30.7531 123.565 27.2324C122.583 26.5304 121.636 27.3376 121.561 27.4024C119.515 29.9269 121.321 31.2148 120.574 34.8814Z" fill="white"/>
<path d="M119.475 39.9484C116.211 39.7 110.894 35.9416 109.575 32.0996C108.904 30.1313 109.412 28.4087 111.044 27.1235C111.505 26.8485 112.031 26.7065 112.566 26.7131C113.171 26.723 113.767 26.8668 114.311 27.1343C116.486 28.7543 116.433 29.9612 116.355 31.6352C116.301 32.8313 116.24 34.1894 116.978 36.0172C117.44 37.5328 118.303 38.8922 119.475 39.9484Z" fill="white"/>
<path d="M112.577 26.8404C113.155 26.8486 113.724 26.985 114.244 27.24C116.36 28.8195 116.307 29.994 116.232 31.6221C116.178 32.829 116.117 34.2006 116.863 36.0501C117.287 37.4561 118.053 38.7325 119.092 39.7625C115.852 39.2711 110.955 35.6964 109.711 32.0487C109.053 30.1155 109.527 28.4955 111.124 27.2319C111.564 26.9704 112.066 26.835 112.577 26.8404ZM112.577 26.5704C112.012 26.5652 111.457 26.7165 110.971 27.0078C105.085 31.641 114.985 40.0892 119.801 40.0892H119.838C118.543 39.0153 117.594 37.5775 117.109 35.9583C115.346 31.5978 118.212 29.8563 114.38 27.0078C113.817 26.7293 113.199 26.5799 112.571 26.5704H112.577Z" fill="white"/>
</g>
<defs>
<clipPath id="clip0_902_194">
<rect width="185" height="67" fill="white"/>
</clipPath>
</defs>
</svg>
